<svg xmlns="http://www.w3.org/2000/svg" xmlns:xlink="http://www.w3.org/1999/xlink"  viewBox="0 0 132.9 134.19">
    <path d="M130.36,18.41,99.67.68a5.09,5.09,0,0,0-5.09,0L66.45,16.94,38.31.68a5.09,5.09,0,0,0-5.09,0L2.54,18.41A5.1,5.1,0,0,0,0,22.82v35.4a5.1,5.1,0,0,0,2.54,4.41L30.68,78.89v32.5a5.07,5.07,0,0,0,2.54,4.4l30.69,17.72a5.08,5.08,0,0,0,5.08,0l30.68-17.72a5.07,5.07,0,0,0,2.54-4.4V78.89l28.15-16.26a5.1,5.1,0,0,0,2.54-4.41V22.82A5.1,5.1,0,0,0,130.36,18.41Zm-93,50.72a3.6,3.6,0,0,1-3.26,0L11.8,56.23a3.64,3.64,0,0,1-1.63-2.82V27.64a3.64,3.64,0,0,1,1.63-2.83l22.33-12.9a3.6,3.6,0,0,1,3.26,0l22.34,12.9a3.62,3.62,0,0,1,1.63,2.83V53.41a3.61,3.61,0,0,1-1.63,2.82L43,65.92,39.69,67.8ZM92,106.57a3.61,3.61,0,0,1-1.63,2.82L68.08,122.28a3.6,3.6,0,0,1-3.26,0L42.48,109.39a3.61,3.61,0,0,1-1.63-2.82V80.77A3.58,3.58,0,0,1,42.48,78l16.78-9.7,3.26-1.88L64.82,65a3.6,3.6,0,0,1,3.26,0L90.41,78A3.58,3.58,0,0,1,92,80.77Zm30.68-53.16a3.63,3.63,0,0,1-1.62,2.82L98.76,69.13a3.6,3.6,0,0,1-3.26,0L73.16,56.23a3.63,3.63,0,0,1-1.62-2.82V27.64a3.63,3.63,0,0,1,1.62-2.83L95.5,11.91a3.58,3.58,0,0,1,3.25,0l22.35,12.9a3.63,3.63,0,0,1,1.62,2.83Z"/></svg>
